<svg width="1440" height="130" viewBox="0 0 1440 130" fill="none" xmlns="http://www.w3.org/2000/svg">
<mask id="mask0_28416_3812" style="mask-type:luminance" maskUnits="userSpaceOnUse" x="109" y="63" width="197" height="71">
<path d="M109.895 63.2648H305.982V133.27H109.895V63.2648Z" fill="white"/>
</mask>
<g mask="url(#mask0_28416_3812)">
<path d="M260.176 80.4848C252.015 70.0544 239.334 63.9078 225.679 63.9078C212.062 63.9078 199.371 70.0544 191.182 80.447C168.884 80.8442 150.33 96.277 147.654 115.994C133.28 116.949 118.727 109.904 118.585 109.847C116.675 108.882 114.349 109.317 112.845 110.906C111.389 112.485 111.096 114.849 112.193 116.741C115.153 121.989 118.566 127.237 123.238 131.701H142.037C141.309 131.455 140.59 131.199 139.872 130.906C135.663 129.204 132.288 126.887 129.394 123.984C136.297 125.667 144.808 126.755 153.082 125.299C155.408 124.892 157.148 122.868 157.148 120.485C157.385 103.87 173.063 90.3289 192.052 90.3289C193.508 90.5937 196.667 89.6859 197.631 88.3147C203.844 79.2177 214.35 73.7897 225.679 73.7897C237.008 73.7897 247.457 79.1798 253.736 88.2485C254.606 89.5724 256.109 90.3478 257.736 90.3478C257.736 90.3478 257.793 90.3478 257.831 90.3478C277.888 90.3478 293.926 104.05 293.926 120.864C293.926 124.684 293.065 128.325 291.561 131.701H302.068C303.136 128.249 303.741 124.618 303.741 120.864C303.741 99.199 284.403 81.4399 260.176 80.4848Z" fill="white"/>
</g>
<mask id="mask1_28416_3812" style="mask-type:luminance" maskUnits="userSpaceOnUse" x="114" y="68" width="188" height="66">
<path d="M114.736 68.1063H301.141V133.27H114.736V68.1063Z" fill="white"/>
</mask>
<g mask="url(#mask1_28416_3812)">
<path d="M258.124 85.3831C258.001 85.3831 257.859 85.4304 257.736 85.4304C250.861 75.4444 239.097 68.8344 225.679 68.8344C212.232 68.8344 200.411 75.4917 193.593 85.4966C193.101 85.4871 192.581 85.3831 192.052 85.3831C170.274 85.3831 152.534 101.043 152.269 120.428C135.02 123.426 116.438 114.31 116.438 114.31C120.543 121.554 124.817 127.455 130.973 131.7H296.923C298.171 128.287 298.871 124.637 298.871 120.863C298.862 101.26 280.63 85.3831 258.124 85.3831Z" fill="white"/>
</g>
<path d="M263.002 85.7424C263.087 85.7424 263.144 85.7424 263.172 85.7424C264.014 85.7424 264.771 85.0804 264.827 84.201C264.95 83.2837 264.25 82.4516 263.314 82.3475C253.678 81.487 242.123 86.5651 240.089 96.3241C238.463 104.258 243.172 112.097 250.577 113.837C251.418 114.036 252.288 114.14 253.13 114.14C255.191 114.14 257.224 113.554 259.031 112.39C261.697 110.669 263.56 107.937 264.25 104.674C265.357 99.3123 262.132 93.9411 257.045 92.7401C255.04 92.2295 252.988 92.6172 251.267 93.7236C249.404 94.8867 248.042 96.8536 247.579 99.057C247.38 99.9743 247.985 100.892 248.855 101.081C249.792 101.194 250.662 100.683 250.86 99.7946C251.182 98.4423 251.938 97.2792 253.035 96.5889C254.066 95.9458 255.22 95.7662 256.298 96.0215C259.607 96.8253 261.697 100.39 260.941 103.974C260.468 106.338 259.135 108.315 257.224 109.544C255.456 110.66 253.395 110.991 251.361 110.537C245.669 109.213 242.123 103.161 243.371 97.0144C244.969 89.3358 254.832 84.8346 263.002 85.7424Z" fill="white"/>
<mask id="mask2_28416_3812" style="mask-type:luminance" maskUnits="userSpaceOnUse" x="192" y="104" width="42" height="30">
<path d="M192.204 104.419H233.358V133.27H192.204V104.419Z" fill="white"/>
</mask>
<g mask="url(#mask2_28416_3812)">
<path d="M231.457 120.75C228.355 110.112 219.958 105.242 207.617 107.256C202.681 108.05 198.114 111.048 195.419 115.313C193.073 119.076 192.402 123.417 193.594 127.511C194.029 129.005 194.7 130.414 195.523 131.7H200.071C198.709 130.254 197.631 128.476 197.045 126.481C196.175 123.417 196.667 120.135 198.492 117.28C200.62 113.866 204.241 111.483 208.194 110.859C215.428 109.686 224.743 110.651 227.968 121.79C228.875 124.911 228.696 128.306 227.741 131.7H231.485C232.403 127.994 232.478 124.249 231.457 120.75Z" fill="white"/>
</g>
<mask id="mask3_28416_3812" style="mask-type:luminance" maskUnits="userSpaceOnUse" x="211" y="118" width="11" height="16">
<path d="M211.57 118.944H221.253V133.27H211.57V118.944Z" fill="white"/>
</mask>
<g mask="url(#mask3_28416_3812)">
<path d="M219.239 125.506C219.003 124.986 217.783 122.159 215.23 120.599C214.36 120.05 213.244 120.305 212.761 121.194C212.203 122.045 212.497 123.161 213.367 123.691C214.899 124.665 215.806 126.736 215.835 126.764C216.289 128.4 216.175 130.159 215.504 131.7H219.352C219.873 129.743 219.844 127.606 219.239 125.506Z" fill="white"/>
</g>
<mask id="mask4_28416_3812" style="mask-type:luminance" maskUnits="userSpaceOnUse" x="0" y="0" width="50" height="86">
<path d="M0.957031 0.729431H49.3737V85.0521H0.957031V0.729431Z" fill="white"/>
</mask>
<g mask="url(#mask4_28416_3812)">
<path d="M48.8912 42.0065C48.8912 20.9283 27.9358 3.50958 0.947266 0.95636V10.9707C22.0728 13.4104 37.9785 26.394 37.9785 42.0065C37.9785 57.742 21.8932 70.8013 0.947266 73.1748V83.1229C27.9453 80.5603 48.8912 63.1038 48.8912 42.0065Z" fill="white"/>
</g>
<path d="M43.4254 42.0065C43.4254 23.6233 24.9665 8.38908 0.947266 5.92096V78.1489C24.9665 75.6807 43.4254 60.4654 43.4254 42.0065Z" fill="white"/>
<mask id="mask5_28416_3812" style="mask-type:luminance" maskUnits="userSpaceOnUse" x="0" y="26" width="190" height="108">
<path d="M0.957031 26.9523H189.782V133.271H0.957031V26.9523Z" fill="white"/>
</mask>
<g mask="url(#mask5_28416_3812)">
<path d="M162.727 100.296C157.725 86.1588 146.027 76.154 132.287 74.8112C129.677 51.9172 112.022 32.6924 89.4212 29.0422C69.856 25.8743 50.5744 35.0092 40.4655 51.9929C27.7467 50.7068 16.3612 57.2034 8.6164 70.0641C5.96861 70.2816 3.40593 70.6409 0.947266 71.1232V81.8373C4.3232 81.0335 7.96391 80.5039 11.841 80.3526C13.4675 80.258 14.9711 79.2746 15.7843 77.7521C18.6591 72.4187 26.8294 60.3051 40.9951 62.584C43.0849 63.1231 46.3474 62.2342 47.3214 60.2672C54.9905 45.0897 71.369 36.6641 88.1257 39.3781C107.663 42.546 122.538 60.0403 122.831 80.0784C122.831 81.5347 123.408 82.9342 124.457 83.9177C125.497 84.939 126.897 85.4023 128.202 85.2983C130.027 85.1281 131.597 85.1754 133.1 85.4212C143.209 87.0572 151.569 95.4355 154.368 106.812C154.945 109.081 156.921 110.793 159.068 110.764C159.295 110.764 160.599 110.689 160.864 110.689C169.81 111.956 178.633 121.828 177.706 129.299C177.593 130.15 177.413 130.954 177.195 131.71H187.295C187.342 131.427 187.399 131.162 187.437 130.878C189.12 117.734 176.893 102.613 162.727 100.296Z" fill="white"/>
</g>
<mask id="mask6_28416_3812" style="mask-type:luminance" maskUnits="userSpaceOnUse" x="0" y="126" width="14" height="8">
<path d="M0.957031 126.206H13.0612V133.27H0.957031V126.206Z" fill="white"/>
</mask>
<g mask="url(#mask6_28416_3812)">
<path d="M0.947266 131.701H10.7535C7.30196 130.708 4.01114 129.469 0.947266 128.041V131.701Z" fill="white"/>
</g>
<mask id="mask7_28416_3812" style="mask-type:luminance" maskUnits="userSpaceOnUse" x="0" y="31" width="185" height="103">
<path d="M0.957031 31.7937H184.941V133.27H0.957031V31.7937Z" fill="white"/>
</mask>
<g mask="url(#mask7_28416_3812)">
<path d="M161.971 105.468C160.987 105.308 160.079 105.563 159.124 105.535C155.701 91.7 145.535 82.1301 133.743 80.2388C131.71 79.9173 129.715 79.9078 127.701 80.0686C127.417 57.6759 111.209 37.8269 88.7971 34.2146C69.3359 31.0656 51.3876 41.1272 43.0187 57.7326C42.5648 57.6475 42.092 57.4584 41.6287 57.3922C28.0398 55.1888 17.5905 63.6996 11.5479 75.1134C7.84097 75.2742 4.28537 75.7281 0.947266 76.4563V131.691H182.245C182.359 131.161 182.453 130.622 182.519 130.065C183.862 119.521 173.347 107.303 161.971 105.468Z" fill="white"/>
</g>
<path d="M60.7305 55.4721C57.3924 56.0111 54.4609 57.9023 52.6926 60.6258C51.1606 63.0088 50.6311 65.8552 51.1606 68.607C51.3876 69.6472 52.3143 70.328 53.2789 70.1011C54.2623 69.9025 54.877 68.919 54.6406 67.8788C54.2907 66.1389 54.6406 64.3232 55.624 62.7913C56.8439 60.9095 58.9338 59.6045 61.3168 59.2262C66.9812 58.3752 72.5226 61.8835 73.5723 67.1223C74.0924 69.7607 73.5439 72.5881 71.9458 75.0752C69.8275 78.3565 66.253 80.6639 62.3664 81.288C53.8273 82.5835 44.248 75.9451 42.5364 67.6235C41.7515 63.614 43.5766 57.6754 47.4348 51.6895C52.494 43.8974 59.643 38.1101 65.2696 37.2118C66.253 37.051 66.8961 36.0959 66.7258 35.0841C66.584 34.0628 65.6762 33.3252 64.7211 33.4765C58.0638 34.5356 50.1393 40.7957 44.5317 49.5051C40.0305 56.4082 38.0541 63.2641 39.0754 68.3422C40.7586 76.7962 48.6547 83.6237 57.1371 84.9949C59.0567 85.2975 61.0047 85.3259 62.9149 85.0327C67.766 84.2573 72.2389 81.3353 74.8489 77.2312C77.0617 73.8647 77.8182 70.0254 77.0617 66.3753C75.6338 59.1979 68.3429 54.2995 60.7305 55.4721Z" fill="white"/>
<mask id="mask8_28416_3812" style="mask-type:luminance" maskUnits="userSpaceOnUse" x="20" y="99" width="35" height="35">
<path d="M20.3237 99.5774H54.2154V133.271H20.3237V99.5774Z" fill="white"/>
</mask>
<g mask="url(#mask8_28416_3812)">
<path d="M51.4446 109.686C48.8347 104.031 43.4351 100.296 37.0426 99.8422C30.8959 99.4639 25.3734 102.358 22.3473 107.625C20.6168 110.604 20.1156 114.358 21.014 117.781C21.9407 121.081 23.9738 123.738 26.8769 125.337C29.8368 126.925 33.26 127.256 36.2293 126.197C38.7825 125.223 40.7589 123.266 41.8653 120.694C42.3003 119.738 41.8653 118.623 40.9953 118.188C39.9457 117.743 39.0189 118.188 38.6123 119.105C37.9409 120.75 36.6359 122.027 35 122.613C32.9479 123.37 30.5649 123.152 28.4467 121.951C26.4987 120.883 25.0802 119.067 24.4939 116.797C23.8036 114.386 24.144 111.767 25.3639 109.667C27.6902 105.573 32.0496 103.332 36.8912 103.644C42.0355 103.918 46.2152 106.887 48.2484 111.303C49.8181 114.689 50.168 119.606 49.1846 124.41C48.5793 127.256 47.0474 129.677 44.9765 131.71H49.7709C51.1231 129.809 52.1255 127.672 52.6361 125.289C53.8276 119.625 53.3643 113.79 51.4446 109.686Z" fill="white"/>
</g>
<path d="M129.035 94.0455C125.697 93.0148 122.387 93.4025 119.682 95.0574C117.366 96.5136 115.739 98.8399 115.153 101.601C114.926 102.613 115.503 103.634 116.496 103.89C117.574 104.154 118.415 103.502 118.585 102.5C118.992 100.75 120.032 99.2465 121.517 98.3198C123.37 97.185 125.782 96.9486 128.108 97.6484C133.631 99.4262 137.347 105.091 136.184 110.282C135.664 112.911 133.971 115.152 131.531 116.703C128.288 118.708 124.042 119.228 120.335 117.999C112.023 115.37 105.867 105.062 107.635 96.8162C108.59 92.3906 112.514 87.6625 118.15 84.1541C124.448 80.2486 131.531 78.7734 136.59 80.4472C137.574 80.7404 138.501 80.1824 138.794 79.1895C139.087 78.1682 138.501 77.128 137.546 76.8254C131.484 74.9531 123.522 76.4188 116.354 80.8822C109.867 84.8823 105.346 90.5183 104.174 95.9273C101.971 106.178 109.176 118.415 119.332 121.62C120.146 121.857 120.959 122.065 121.772 122.207C125.782 122.84 129.961 122.065 133.356 119.984C136.647 117.932 138.907 114.821 139.692 111.199C141.215 104.05 136.439 96.4002 129.035 94.0455Z" fill="white"/>
<mask id="mask9_28416_3812" style="mask-type:luminance" maskUnits="userSpaceOnUse" x="424" y="63" width="195" height="71">
<path d="M424.604 63.2648H618.27V133.27H424.604V63.2648Z" fill="white"/>
</mask>
<g mask="url(#mask9_28416_3812)">
<path d="M616.719 116.75C617.826 114.859 617.532 112.495 616.086 110.916C614.573 109.327 612.246 108.882 610.336 109.856C610.223 109.913 595.641 116.958 581.296 116.003C578.629 96.2771 560.038 80.8442 537.739 80.4471C529.541 70.0545 516.888 63.9173 503.242 63.9173C489.587 63.9173 476.935 70.0545 468.736 80.4944C444.528 81.44 425.189 99.1991 425.189 120.864C425.189 124.618 425.776 128.249 426.863 131.701H437.36C435.866 128.325 435.005 124.684 435.005 120.864C435.005 104.05 451.034 90.3479 471.119 90.3479H471.185C472.812 90.3479 474.325 89.5725 475.195 88.2486C481.464 79.1894 491.914 73.7898 503.242 73.7898C514.562 73.7898 525.068 79.2177 531.281 88.3148C532.274 89.686 535.423 90.5938 536.869 90.329C555.867 90.329 571.537 103.871 571.773 120.485C571.773 122.868 573.513 124.892 575.83 125.299C584.142 126.755 592.615 125.668 599.537 123.984C596.634 126.887 593.258 129.204 589.078 130.906C588.369 131.2 587.65 131.455 586.922 131.701H605.684C610.355 127.237 613.769 121.989 616.719 116.75Z" fill="white"/>
</g>
<mask id="mask10_28416_3812" style="mask-type:luminance" maskUnits="userSpaceOnUse" x="429" y="68" width="185" height="66">
<path d="M429.445 68.1063H613.428V133.27H429.445V68.1063Z" fill="white"/>
</mask>
<g mask="url(#mask10_28416_3812)">
<path d="M612.492 114.31C612.492 114.31 593.9 123.426 576.652 120.428C576.416 101.043 558.647 85.3831 536.869 85.3831C536.349 85.3831 535.81 85.4871 535.356 85.4966C528.5 75.4917 516.727 68.8344 503.242 68.8344C489.823 68.8344 478.088 75.4444 471.185 85.4304C471.062 85.4304 470.939 85.3831 470.835 85.3831C448.3 85.3831 430.059 101.26 430.059 120.854C430.059 124.637 430.74 128.277 432.007 131.7H597.967C604.113 127.445 608.378 121.554 612.492 114.31Z" fill="white"/>
</g>
<path d="M465.606 82.3477C464.67 82.4423 463.98 83.2839 464.093 84.2012C464.159 85.0806 464.907 85.7331 465.777 85.7331C465.777 85.7331 465.843 85.7331 465.956 85.7331C474.079 84.8347 483.952 89.336 485.588 97.0051C486.798 103.152 483.261 109.204 477.569 110.528C475.536 110.982 473.502 110.651 471.706 109.535C469.786 108.315 468.453 106.329 467.98 103.965C467.233 100.381 469.323 96.816 472.632 96.0122C473.729 95.7569 474.892 95.9365 475.885 96.5796C476.992 97.2699 477.739 98.4425 478.089 99.7853C478.268 100.674 479.138 101.185 480.065 101.071C480.935 100.882 481.569 99.965 481.342 99.0477C480.878 96.8444 479.536 94.8774 477.682 93.7143C475.933 92.6079 473.909 92.2202 471.866 92.7308C466.817 93.9318 463.564 99.303 464.67 104.665C465.37 107.927 467.233 110.66 469.909 112.381C471.706 113.535 473.729 114.131 475.829 114.131C476.642 114.131 477.512 114.027 478.391 113.837C485.748 112.098 490.458 104.249 488.831 96.3148C486.798 86.5558 475.242 81.4777 465.606 82.3477Z" fill="white"/>
<mask id="mask11_28416_3812" style="mask-type:luminance" maskUnits="userSpaceOnUse" x="494" y="104" width="42" height="30">
<path d="M494.808 104.419H535.962V133.27H494.808V104.419Z" fill="white"/>
</mask>
<g mask="url(#mask11_28416_3812)">
<path d="M533.503 115.313C530.826 111.048 526.24 108.05 521.304 107.256C508.982 105.241 500.575 110.121 497.483 120.75C496.462 124.249 496.537 127.994 497.445 131.7H501.181C500.225 128.306 500.055 124.911 500.973 121.79C504.169 110.651 513.512 109.686 520.717 110.859C524.67 111.483 528.33 113.866 530.41 117.279C532.273 120.145 532.746 123.417 531.876 126.481C531.28 128.476 530.212 130.254 528.841 131.7H533.408C534.24 130.414 534.902 129.005 535.356 127.511C536.51 123.417 535.876 119.076 533.503 115.313Z" fill="white"/>
</g>
<mask id="mask12_28416_3812" style="mask-type:luminance" maskUnits="userSpaceOnUse" x="506" y="118" width="11" height="16">
<path d="M506.912 118.944H516.595V133.27H506.912V118.944Z" fill="white"/>
</mask>
<g mask="url(#mask12_28416_3812)">
<path d="M513.115 126.755C513.115 126.736 514.042 124.665 515.555 123.691C516.415 123.161 516.718 122.036 516.188 121.185C515.678 120.296 514.562 120.05 513.692 120.589C511.139 122.159 509.919 124.986 509.682 125.506C509.068 127.596 509.049 129.743 509.569 131.7H513.408C512.737 130.149 512.623 128.4 513.115 126.755Z" fill="white"/>
</g>
<mask id="mask13_28416_3812" style="mask-type:luminance" maskUnits="userSpaceOnUse" x="276" y="58" width="173" height="76">
<path d="M276.932 58.4225H448.811V133.27H276.932V58.4225Z" fill="white"/>
</mask>
<g mask="url(#mask13_28416_3812)">
<path d="M400.706 76.853C391.874 66.1484 378.162 59.8504 363.401 59.8504C348.715 59.8504 334.946 66.1484 326.124 76.8624C299.873 77.7419 278.851 95.936 278.851 118.215C278.851 122.934 279.806 127.473 281.537 131.7H292.44C290.029 127.605 288.667 123.038 288.667 118.215C288.667 100.863 306.312 86.7633 328.45 86.7633C330.133 86.5363 331.514 86.0257 332.459 84.7302C339.344 75.34 350.918 69.7229 363.401 69.7229C375.978 69.7229 387.581 75.3683 394.437 84.8342C395.411 86.177 398.635 86.7822 400.073 86.716C421.293 86.716 438.569 100.853 438.569 118.215C438.569 123.038 437.236 127.605 434.872 131.7H445.737C447.449 127.473 448.385 122.943 448.385 118.215C448.385 95.5766 427.071 77.1272 400.706 76.853Z" fill="white"/>
</g>
<mask id="mask14_28416_3812" style="mask-type:luminance" maskUnits="userSpaceOnUse" x="281" y="63" width="163" height="71">
<path d="M281.774 63.2648H443.97V133.27H281.774V63.2648Z" fill="white"/>
</mask>
<g mask="url(#mask14_28416_3812)">
<path d="M400.074 81.7803C399.488 81.7803 398.958 81.8938 398.391 81.9032C390.949 71.6147 378.079 64.7872 363.412 64.7872C348.83 64.7872 336.007 71.5485 328.518 81.7992C328.366 81.7992 328.225 81.7803 328.111 81.7803C303.591 81.7803 283.742 98.1209 283.742 118.225C283.742 122.991 284.858 127.54 286.872 131.701H440.406C442.382 127.54 443.479 122.991 443.479 118.225C443.479 98.1209 424.008 81.7803 400.074 81.7803Z" fill="white"/>
</g>
<path d="M322.124 78.8484C321.141 78.924 320.441 79.8035 320.517 80.7964C320.611 81.7799 321.453 82.4134 322.446 82.4134C323.316 82.3472 324.186 82.3 325.084 82.3C337.217 82.3 351.307 89.3261 353.784 100.589C354.796 105.09 354.011 109.705 351.562 113.591C349.103 117.468 345.293 120.163 340.82 121.147C337.33 121.951 333.765 121.336 330.786 119.407C327.76 117.497 325.661 114.499 324.914 111.01C323.685 105.392 327.174 99.851 332.753 98.6028C334.787 98.1394 336.867 98.4893 338.664 99.643C340.441 100.768 341.69 102.556 342.153 104.617C342.371 105.591 343.382 106.187 344.252 105.979C345.207 105.761 345.813 104.816 345.614 103.842C344.952 100.834 343.155 98.2718 340.564 96.6264C337.983 94.981 334.947 94.4609 331.969 95.1134C328.337 95.8982 325.264 98.0921 323.288 101.241C321.254 104.4 320.611 108.125 321.425 111.776C322.418 116.201 325.056 120.012 328.857 122.452C331.581 124.192 334.692 125.071 337.841 125.071C339.08 125.071 340.328 124.939 341.576 124.665C346.976 123.445 351.562 120.201 354.522 115.53C357.491 110.82 358.475 105.26 357.264 99.8416C354.21 85.9028 336.318 77.6852 322.124 78.8484Z" fill="white"/>
<path d="M405.927 82.4134C406.92 82.3566 407.79 81.7609 407.875 80.7963C407.951 79.8034 407.241 78.924 406.267 78.8483C392.13 77.6379 374.153 85.9028 371.137 99.8131C369.926 105.241 370.9 110.783 373.879 115.492C376.839 120.201 381.425 123.445 386.768 124.655C388.045 124.939 389.331 125.071 390.541 125.071C393.69 125.071 396.811 124.192 399.534 122.442C403.374 120.003 405.993 116.201 406.986 111.775C407.799 108.116 407.156 104.39 405.151 101.232C403.137 98.0921 400.073 95.8982 396.452 95.1133C393.482 94.4419 390.428 94.962 387.808 96.6169C385.255 98.2717 383.449 100.825 382.759 103.842C382.551 104.787 383.156 105.752 384.13 105.979C385.057 106.149 386.012 105.6 386.239 104.626C386.702 102.546 387.922 100.768 389.728 99.6429C391.525 98.4987 393.671 98.1393 395.657 98.6027C398.362 99.1985 400.679 100.825 402.154 103.17C403.62 105.515 404.14 108.286 403.534 110.991C402.74 114.499 400.65 117.497 397.624 119.407C394.617 121.326 391.033 121.951 387.591 121.147C383.109 120.163 379.317 117.468 376.848 113.572C374.399 109.686 373.586 105.08 374.636 100.589C377.293 88.5127 393.416 81.203 405.927 82.4134Z" fill="white"/>
<mask id="mask15_28416_3812" style="mask-type:luminance" maskUnits="userSpaceOnUse" x="678" y="0" width="50" height="86">
<path d="M678.791 0.729431H727.208V85.0521H678.791V0.729431Z" fill="white"/>
</mask>
<g mask="url(#mask15_28416_3812)">
<path d="M690.971 42.0066C690.971 26.5927 706.489 13.7415 727.208 11.0653V1.02264C700.578 3.83119 680.058 21.1269 680.058 42.0066C680.058 62.9053 700.578 80.2294 727.208 83.0474V73.0709C706.631 70.4704 690.971 57.5435 690.971 42.0066Z" fill="white"/>
</g>
<mask id="mask16_28416_3812" style="mask-type:luminance" maskUnits="userSpaceOnUse" x="683" y="5" width="45" height="76">
<path d="M683.633 5.16473H727.208V80.2106H683.633V5.16473Z" fill="white"/>
</mask>
<g mask="url(#mask16_28416_3812)">
<path d="M685.487 42.0068C685.487 60.2671 703.558 75.3595 727.218 78.064V5.99689C703.558 8.71087 685.487 23.8222 685.487 42.0068Z" fill="white"/>
</g>
<mask id="mask17_28416_3812" style="mask-type:luminance" maskUnits="userSpaceOnUse" x="712" y="126" width="16" height="8">
<path d="M712.683 126.206H727.208V133.27H712.683V126.206Z" fill="white"/>
</mask>
<g mask="url(#mask17_28416_3812)">
<path d="M727.207 131.701V127.634C722.782 129.441 717.931 130.84 712.796 131.701H727.207Z" fill="white"/>
</g>
<mask id="mask18_28416_3812" style="mask-type:luminance" maskUnits="userSpaceOnUse" x="540" y="26" width="188" height="108">
<path d="M540.804 26.9523H727.209V133.271H540.804V26.9523Z" fill="white"/>
</mask>
<g mask="url(#mask18_28416_3812)">
<path d="M552.493 125.762C551.452 118.443 560.19 108.911 569.136 107.795C569.363 107.795 570.706 107.88 570.914 107.88C573.051 107.927 575.018 106.291 575.557 104.079C578.223 93.0146 586.469 84.9294 596.578 83.4542C598.053 83.2367 599.652 83.1989 601.458 83.3786C602.772 83.5299 604.181 83.0759 605.174 82.0925C606.224 81.1563 606.772 79.7851 606.801 78.3572C606.801 58.773 621.496 41.865 640.957 39.0281C657.667 36.5883 674.168 45.0234 682.007 59.9645C683 61.8936 686.282 62.8109 688.371 62.3097C702.509 60.2671 710.821 72.2011 713.724 77.4589C714.594 78.9624 716.079 79.9459 717.734 80.0404C721.062 80.2296 724.249 80.6646 727.218 81.3076V70.9623C725.147 70.5746 723.01 70.2436 720.816 70.0545C712.901 57.364 701.431 50.8864 688.778 51.9739C678.471 35.255 659.076 26.0634 639.501 28.9192C616.966 32.1911 599.576 50.7635 597.212 73.1184C583.51 74.2342 571.954 83.8608 567.131 97.6199C553.022 99.7003 540.927 114.32 542.79 127.181C543.027 128.769 543.395 130.282 543.859 131.701H554.904C553.665 130.121 552.842 128.136 552.493 125.762Z" fill="white"/>
</g>
<mask id="mask19_28416_3812" style="mask-type:luminance" maskUnits="userSpaceOnUse" x="545" y="31" width="183" height="103">
<path d="M545.645 31.7937H727.207V133.27H545.645V31.7937Z" fill="white"/>
</mask>
<g mask="url(#mask19_28416_3812)">
<path d="M727.207 76.1347C724.257 75.5484 721.165 75.1323 717.959 74.9621C711.746 63.7185 701.202 55.2834 687.642 57.2597C687.169 57.3165 686.706 57.4962 686.271 57.5718C677.703 41.2406 659.642 31.1601 640.237 33.9876C617.892 37.2311 601.92 56.4276 601.854 78.3097C599.877 78.1111 597.844 78.1016 595.839 78.3853C584.113 80.078 574.023 89.3074 570.78 102.802C569.825 102.802 568.926 102.537 567.933 102.688C556.614 104.324 546.222 116.154 547.668 126.471C547.943 128.391 548.463 130.131 549.163 131.71H727.207V76.1347Z" fill="white"/>
</g>
<path d="M664.286 33.5711C663.331 33.4103 662.432 34.1101 662.291 35.1219C662.139 36.0959 662.782 37.051 663.775 37.2213C669.402 38.148 676.598 43.9069 681.78 51.5855C685.724 57.4768 687.643 63.3209 686.887 67.2264C685.26 75.34 675.757 81.7041 667.227 80.314C663.331 79.6804 659.7 77.3542 657.553 74.1295C655.936 71.6614 655.34 68.9002 655.841 66.3375C656.796 61.2216 662.31 57.874 668.012 58.7724C670.385 59.1695 672.485 60.484 673.695 62.328C674.745 63.8504 675.095 65.6188 674.745 67.3115C674.565 68.3611 675.161 69.2973 676.144 69.5054C677.109 69.7418 678.054 69.0798 678.234 68.0775C678.754 65.3824 678.177 62.5927 676.627 60.257C674.83 57.5619 671.87 55.6896 668.522 55.1222C660.929 53.874 653.657 58.5643 652.324 65.5715C651.633 69.1082 652.447 72.8813 654.688 76.2005C657.326 80.2478 661.856 83.1604 666.697 83.9831C668.645 84.2952 670.565 84.2952 672.485 84.0115C680.958 82.7821 688.75 76.2005 690.376 67.964C691.303 63.0183 689.232 56.3042 684.674 49.4956C678.934 40.9187 670.915 34.6869 664.286 33.5711Z" fill="white"/>
<mask id="mask20_28416_3812" style="mask-type:luminance" maskUnits="userSpaceOnUse" x="676" y="97" width="35" height="37">
<path d="M676.37 97.1562H710.262V133.27H676.37V97.1562Z" fill="white"/>
</mask>
<g mask="url(#mask20_28416_3812)">
<path d="M680.928 122.641C679.85 117.932 680.143 113.119 681.656 109.847C683.68 105.544 687.812 102.698 692.957 102.49C697.798 102.263 702.158 104.513 704.541 108.532C705.78 110.603 706.167 113.166 705.468 115.521C704.938 117.715 703.548 119.502 701.628 120.504C699.491 121.648 697.127 121.838 695.065 121.062C693.382 120.466 692.106 119.199 691.406 117.592C690.999 116.684 690.035 116.23 689.013 116.655C688.153 117.071 687.746 118.187 688.153 119.105C689.288 121.648 691.321 123.568 693.912 124.561C696.843 125.639 700.266 125.355 703.189 123.823C706.063 122.301 708.077 119.757 708.976 116.532C709.846 113.185 709.297 109.525 707.548 106.594C704.475 101.421 698.895 98.5086 692.739 98.7923C686.347 99.1705 681.004 102.736 678.451 108.22C676.597 112.22 676.2 117.923 677.458 123.455C678.186 126.632 679.822 129.384 682.006 131.701H687.481C684.247 129.384 681.779 126.348 680.928 122.641Z" fill="white"/>
</g>
<path d="M613.24 79.2458C606.006 74.7824 598.015 73.2599 591.982 75.0093C591.046 75.293 590.507 76.3049 590.762 77.3072C591.046 78.2812 592.039 78.8297 592.975 78.5649C598.015 76.9952 605.107 78.5366 611.49 82.4231C617.155 85.9315 621.098 90.5935 622.148 94.9339C624.011 103.019 617.996 113.024 609.722 115.464C605.996 116.627 601.769 116.06 598.516 114.055C596.048 112.523 594.299 110.301 593.779 107.71C592.559 102.631 596.162 97.1467 601.675 95.473C604.01 94.8299 606.422 95.0758 608.294 96.22C609.807 97.1562 610.828 98.6314 611.263 100.343C611.434 101.326 612.304 101.979 613.382 101.733C614.337 101.487 614.914 100.494 614.687 99.5108C614.072 96.7969 612.427 94.5084 610.1 93.0521C607.367 91.3973 604.058 90.9717 600.682 91.9457C593.315 94.1491 588.672 101.572 590.289 108.561C591.102 112.116 593.372 115.199 596.71 117.232C600.105 119.322 604.275 120.145 608.313 119.549C609.136 119.435 609.949 119.237 610.734 119.019C620.843 116.012 627.926 104.144 625.59 94.1018C624.389 88.7967 619.774 83.2364 613.24 79.2458Z" fill="white"/>
<mask id="mask21_28416_3812" style="mask-type:luminance" maskUnits="userSpaceOnUse" x="833" y="63" width="197" height="71">
<path d="M833.156 63.2648H1029.24V133.27H833.156V63.2648Z" fill="white"/>
</mask>
<g mask="url(#mask21_28416_3812)">
<path d="M983.437 80.4848C975.276 70.0544 962.595 63.9078 948.94 63.9078C935.323 63.9078 922.632 70.0544 914.443 80.447C892.145 80.8442 873.592 96.277 870.915 115.994C856.542 116.949 841.988 109.904 841.846 109.847C839.936 108.882 837.61 109.317 836.106 110.906C834.65 112.485 834.357 114.849 835.454 116.741C838.414 121.989 841.828 127.237 846.499 131.701H865.298C864.57 131.455 863.851 131.199 863.133 130.906C858.925 129.204 855.549 126.887 852.655 123.984C859.558 125.667 868.069 126.755 876.343 125.299C878.67 124.892 880.41 122.868 880.41 120.485C880.646 103.87 896.325 90.3289 915.313 90.3289C916.769 90.5937 919.928 89.6859 920.892 88.3147C927.105 79.2177 937.611 73.7897 948.94 73.7897C960.269 73.7897 970.718 79.1798 976.997 88.2485C977.867 89.5724 979.371 90.3478 980.997 90.3478C980.997 90.3478 981.054 90.3478 981.092 90.3478C1001.15 90.3478 1017.19 104.05 1017.19 120.864C1017.19 124.684 1016.33 128.325 1014.82 131.701H1025.33C1026.4 128.249 1027 124.618 1027 120.864C1027 99.199 1007.66 81.4399 983.437 80.4848Z" fill="white"/>
</g>
<mask id="mask22_28416_3812" style="mask-type:luminance" maskUnits="userSpaceOnUse" x="837" y="68" width="188" height="66">
<path d="M837.998 68.1063H1024.4V133.27H837.998V68.1063Z" fill="white"/>
</mask>
<g mask="url(#mask22_28416_3812)">
<path d="M981.385 85.3831C981.262 85.3831 981.12 85.4304 980.997 85.4304C974.122 75.4444 962.359 68.8344 948.94 68.8344C935.493 68.8344 923.672 75.4917 916.854 85.4966C916.363 85.4871 915.843 85.3831 915.313 85.3831C893.535 85.3831 875.795 101.043 875.53 120.428C858.282 123.426 839.7 114.31 839.7 114.31C843.804 121.554 848.078 127.455 854.234 131.7H1020.18C1021.43 128.287 1022.13 124.637 1022.13 120.863C1022.12 101.26 1003.89 85.3831 981.385 85.3831Z" fill="white"/>
</g>
<path d="M986.263 85.7424C986.349 85.7424 986.405 85.7424 986.434 85.7424C987.275 85.7424 988.032 85.0804 988.089 84.201C988.211 83.2837 987.512 82.4516 986.576 82.3475C976.939 81.487 965.384 86.5651 963.351 96.3241C961.724 104.258 966.433 112.097 973.838 113.837C974.679 114.036 975.549 114.14 976.391 114.14C978.452 114.14 980.486 113.554 982.292 112.39C984.958 110.669 986.821 107.937 987.512 104.674C988.618 99.3123 985.393 93.9411 980.306 92.7401C978.301 92.2295 976.249 92.6172 974.528 93.7236C972.665 94.8867 971.303 96.8536 970.84 99.057C970.641 99.9743 971.247 100.892 972.117 101.081C973.053 101.194 973.923 100.683 974.121 99.7946C974.443 98.4423 975.199 97.2792 976.296 96.5889C977.327 95.9458 978.481 95.7662 979.559 96.0215C982.869 96.8253 984.958 100.39 984.202 103.974C983.729 106.338 982.396 108.315 980.486 109.544C978.717 110.66 976.656 110.991 974.623 110.537C968.93 109.213 965.384 103.161 966.632 97.0144C968.23 89.3358 978.093 84.8346 986.263 85.7424Z" fill="white"/>
<mask id="mask23_28416_3812" style="mask-type:luminance" maskUnits="userSpaceOnUse" x="915" y="104" width="42" height="30">
<path d="M915.465 104.419H956.619V133.27H915.465V104.419Z" fill="white"/>
</mask>
<g mask="url(#mask23_28416_3812)">
<path d="M954.718 120.75C951.616 110.112 943.219 105.242 930.879 107.256C925.942 108.05 921.375 111.048 918.68 115.313C916.335 119.076 915.663 123.417 916.855 127.511C917.29 129.005 917.961 130.414 918.784 131.7H923.332C921.971 130.254 920.893 128.476 920.306 126.481C919.436 123.417 919.928 120.135 921.753 117.28C923.881 113.866 927.503 111.483 931.455 110.859C938.69 109.686 948.004 110.651 951.229 121.79C952.137 124.911 951.957 128.306 951.002 131.7H954.747C955.664 127.994 955.739 124.249 954.718 120.75Z" fill="white"/>
</g>
<mask id="mask24_28416_3812" style="mask-type:luminance" maskUnits="userSpaceOnUse" x="934" y="118" width="11" height="16">
<path d="M934.831 118.944H944.514V133.27H934.831V118.944Z" fill="white"/>
</mask>
<g mask="url(#mask24_28416_3812)">
<path d="M942.5 125.506C942.264 124.986 941.044 122.159 938.491 120.599C937.621 120.05 936.505 120.305 936.023 121.194C935.465 122.045 935.758 123.161 936.628 123.691C938.16 124.665 939.068 126.736 939.096 126.764C939.55 128.4 939.436 130.159 938.765 131.7H942.614C943.134 129.743 943.105 127.606 942.5 125.506Z" fill="white"/>
</g>
<mask id="mask25_28416_3812" style="mask-type:luminance" maskUnits="userSpaceOnUse" x="724" y="0" width="49" height="86">
<path d="M724.218 0.729431H772.635V85.0521H724.218V0.729431Z" fill="white"/>
</mask>
<g mask="url(#mask25_28416_3812)">
<path d="M772.152 42.0065C772.152 20.9283 751.197 3.50958 724.208 0.95636V10.9707C745.334 13.4104 761.24 26.394 761.24 42.0065C761.24 57.742 745.154 70.8013 724.208 73.1748V83.1229C751.206 80.5603 772.152 63.1038 772.152 42.0065Z" fill="white"/>
</g>
<path d="M766.687 42.0065C766.687 23.6233 748.228 8.38908 724.208 5.92096V78.1489C748.228 75.6807 766.687 60.4654 766.687 42.0065Z" fill="white"/>
<mask id="mask26_28416_3812" style="mask-type:luminance" maskUnits="userSpaceOnUse" x="724" y="26" width="190" height="108">
<path d="M724.218 26.9523H913.043V133.271H724.218V26.9523Z" fill="white"/>
</mask>
<g mask="url(#mask26_28416_3812)">
<path d="M885.988 100.296C880.986 86.1588 869.288 76.154 855.548 74.8112C852.938 51.9172 835.283 32.6924 812.682 29.0422C793.117 25.8743 773.836 35.0092 763.727 51.9929C751.008 50.7068 739.622 57.2034 731.878 70.0641C729.23 70.2816 726.667 70.6409 724.208 71.1232V81.8373C727.584 81.0335 731.225 80.5039 735.102 80.3526C736.729 80.258 738.232 79.2746 739.046 77.7521C741.92 72.4187 750.091 60.3051 764.256 62.584C766.346 63.1231 769.609 62.2342 770.583 60.2672C778.252 45.0897 794.63 36.6641 811.387 39.3781C830.924 42.546 845.799 60.0403 846.092 80.0784C846.092 81.5347 846.669 82.9342 847.718 83.9177C848.759 84.939 850.158 85.4023 851.463 85.2983C853.288 85.1281 854.858 85.1754 856.362 85.4212C866.47 87.0572 874.83 95.4355 877.629 106.812C878.206 109.081 880.182 110.793 882.329 110.764C882.556 110.764 883.861 110.689 884.126 110.689C893.071 111.956 901.894 121.828 900.967 129.299C900.854 130.15 900.674 130.954 900.457 131.71H910.556C910.603 131.427 910.66 131.162 910.698 130.878C912.381 117.734 900.154 102.613 885.988 100.296Z" fill="white"/>
</g>
<mask id="mask27_28416_3812" style="mask-type:luminance" maskUnits="userSpaceOnUse" x="724" y="126" width="13" height="8">
<path d="M724.218 126.206H736.322V133.27H724.218V126.206Z" fill="white"/>
</mask>
<g mask="url(#mask27_28416_3812)">
<path d="M724.208 131.701H734.015C730.563 130.708 727.272 129.469 724.208 128.041V131.701Z" fill="white"/>
</g>
<mask id="mask28_28416_3812" style="mask-type:luminance" maskUnits="userSpaceOnUse" x="724" y="31" width="185" height="103">
<path d="M724.218 31.7937H908.202V133.27H724.218V31.7937Z" fill="white"/>
</mask>
<g mask="url(#mask28_28416_3812)">
<path d="M885.232 105.468C884.248 105.308 883.341 105.563 882.386 105.535C878.962 91.7 868.797 82.1301 857.005 80.2388C854.971 79.9173 852.976 79.9078 850.962 80.0686C850.678 57.6759 834.47 37.8269 812.058 34.2146C792.597 31.0656 774.649 41.1272 766.28 57.7326C765.826 57.6475 765.353 57.4584 764.89 57.3922C751.301 55.1888 740.852 63.6996 734.809 75.1134C731.102 75.2742 727.547 75.7281 724.208 76.4563V131.691H905.506C905.62 131.161 905.714 130.622 905.781 130.065C907.123 119.521 896.608 107.303 885.232 105.468Z" fill="white"/>
</g>
<path d="M783.991 55.4721C780.653 56.0111 777.722 57.9023 775.953 60.6258C774.421 63.0088 773.892 65.8552 774.421 68.607C774.648 69.6472 775.575 70.328 776.54 70.1011C777.523 69.9025 778.138 68.919 777.901 67.8788C777.551 66.1389 777.901 64.3232 778.885 62.7913C780.105 60.9095 782.195 59.6045 784.578 59.2262C790.242 58.3752 795.783 61.8835 796.833 67.1223C797.353 69.7607 796.805 72.5881 795.207 75.0752C793.088 78.3565 789.514 80.6639 785.627 81.288C777.088 82.5835 767.509 75.9451 765.797 67.6235C765.012 63.614 766.837 57.6754 770.696 51.6895C775.755 43.8974 782.904 38.1101 788.53 37.2118C789.514 37.051 790.157 36.0959 789.987 35.0841C789.845 34.0628 788.937 33.3252 787.982 33.4765C781.325 34.5356 773.4 40.7957 767.792 49.5051C763.291 56.4082 761.315 63.2641 762.336 68.3422C764.019 76.7962 771.915 83.6237 780.398 84.9949C782.317 85.2975 784.265 85.3259 786.176 85.0327C791.027 84.2573 795.5 81.3353 798.11 77.2312C800.322 73.8647 801.079 70.0254 800.322 66.3753C798.895 59.1979 791.604 54.2995 783.991 55.4721Z" fill="white"/>
<mask id="mask29_28416_3812" style="mask-type:luminance" maskUnits="userSpaceOnUse" x="743" y="99" width="35" height="35">
<path d="M743.584 99.5774H777.476V133.271H743.584V99.5774Z" fill="white"/>
</mask>
<g mask="url(#mask29_28416_3812)">
<path d="M774.706 109.686C772.096 104.031 766.696 100.296 760.304 99.8422C754.157 99.4639 748.635 102.358 745.609 107.625C743.878 110.604 743.377 114.358 744.275 117.781C745.202 121.081 747.235 123.738 750.138 125.337C753.098 126.925 756.521 127.256 759.491 126.197C762.044 125.223 764.02 123.266 765.127 120.694C765.562 119.738 765.127 118.623 764.257 118.188C763.207 117.743 762.28 118.188 761.874 119.105C761.202 120.75 759.897 122.027 758.261 122.613C756.209 123.37 753.826 123.152 751.708 121.951C749.76 120.883 748.341 119.067 747.755 116.797C747.065 114.386 747.405 111.767 748.625 109.667C750.951 105.573 755.311 103.332 760.152 103.644C765.297 103.918 769.476 106.887 771.51 111.303C773.079 114.689 773.429 119.606 772.446 124.41C771.841 127.256 770.309 129.677 768.238 131.71H773.032C774.384 129.809 775.387 127.672 775.897 125.289C777.089 119.625 776.626 113.79 774.706 109.686Z" fill="white"/>
</g>
<path d="M852.296 94.0455C848.958 93.0148 845.648 93.4025 842.944 95.0574C840.627 96.5136 839 98.8399 838.414 101.601C838.187 102.613 838.764 103.634 839.757 103.89C840.835 104.154 841.676 103.502 841.847 102.5C842.253 100.75 843.293 99.2465 844.778 98.3198C846.632 97.185 849.043 96.9486 851.369 97.6484C856.892 99.4262 860.608 105.091 859.445 110.282C858.925 112.911 857.232 115.152 854.792 116.703C851.549 118.708 847.303 119.228 843.596 117.999C835.284 115.37 829.128 105.062 830.896 96.8162C831.851 92.3906 835.776 87.6625 841.412 84.1541C847.71 80.2486 854.792 78.7734 859.852 80.4472C860.835 80.7404 861.762 80.1824 862.055 79.1895C862.348 78.1682 861.762 77.128 860.807 76.8254C854.745 74.9531 846.783 76.4188 839.615 80.8822C833.128 84.8823 828.608 90.5183 827.435 95.9273C825.232 106.178 832.438 118.415 842.594 121.62C843.407 121.857 844.22 122.065 845.033 122.207C849.043 122.84 853.223 122.065 856.618 119.984C859.908 117.932 862.168 114.821 862.953 111.199C864.476 104.05 859.7 96.4002 852.296 94.0455Z" fill="white"/>
<mask id="mask30_28416_3812" style="mask-type:luminance" maskUnits="userSpaceOnUse" x="1147" y="63" width="195" height="71">
<path d="M1147.86 63.2648H1341.53V133.27H1147.86V63.2648Z" fill="white"/>
</mask>
<g mask="url(#mask30_28416_3812)">
<path d="M1339.98 116.75C1341.09 114.859 1340.79 112.495 1339.35 110.916C1337.83 109.327 1335.51 108.882 1333.6 109.856C1333.48 109.913 1318.9 116.958 1304.56 116.003C1301.89 96.2771 1283.3 80.8442 1261 80.4471C1252.8 70.0545 1240.15 63.9173 1226.5 63.9173C1212.85 63.9173 1200.2 70.0545 1192 80.4944C1167.79 81.44 1148.45 99.1991 1148.45 120.864C1148.45 124.618 1149.04 128.249 1150.12 131.701H1160.62C1159.13 128.325 1158.27 124.684 1158.27 120.864C1158.27 104.05 1174.29 90.3479 1194.38 90.3479H1194.45C1196.07 90.3479 1197.59 89.5725 1198.46 88.2486C1204.73 79.1894 1215.17 73.7898 1226.5 73.7898C1237.82 73.7898 1248.33 79.2177 1254.54 88.3148C1255.53 89.686 1258.68 90.5938 1260.13 90.329C1279.13 90.329 1294.8 103.871 1295.03 120.485C1295.03 122.868 1296.77 124.892 1299.09 125.299C1307.4 126.755 1315.88 125.668 1322.8 123.984C1319.89 126.887 1316.52 129.204 1312.34 130.906C1311.63 131.2 1310.91 131.455 1310.18 131.701H1328.94C1333.62 127.237 1337.03 121.989 1339.98 116.75Z" fill="white"/>
</g>
<mask id="mask31_28416_3812" style="mask-type:luminance" maskUnits="userSpaceOnUse" x="1152" y="68" width="185" height="66">
<path d="M1152.71 68.1063H1336.69V133.27H1152.71V68.1063Z" fill="white"/>
</mask>
<g mask="url(#mask31_28416_3812)">
<path d="M1335.75 114.31C1335.75 114.31 1317.16 123.426 1299.91 120.428C1299.68 101.043 1281.91 85.3831 1260.13 85.3831C1259.61 85.3831 1259.07 85.4871 1258.62 85.4966C1251.76 75.4917 1239.99 68.8344 1226.5 68.8344C1213.08 68.8344 1201.35 75.4444 1194.45 85.4304C1194.32 85.4304 1194.2 85.3831 1194.1 85.3831C1171.56 85.3831 1153.32 101.26 1153.32 120.854C1153.32 124.637 1154 128.277 1155.27 131.7H1321.23C1327.37 127.445 1331.64 121.554 1335.75 114.31Z" fill="white"/>
</g>
<path d="M1188.87 82.3477C1187.93 82.4423 1187.24 83.2839 1187.35 84.2012C1187.42 85.0806 1188.17 85.7331 1189.04 85.7331C1189.04 85.7331 1189.1 85.7331 1189.22 85.7331C1197.34 84.8347 1207.21 89.336 1208.85 97.0051C1210.06 103.152 1206.52 109.204 1200.83 110.528C1198.8 110.982 1196.76 110.651 1194.97 109.535C1193.05 108.315 1191.71 106.329 1191.24 103.965C1190.49 100.381 1192.58 96.816 1195.89 96.0122C1196.99 95.7569 1198.15 95.9365 1199.15 96.5796C1200.25 97.2699 1201 98.4425 1201.35 99.7853C1201.53 100.674 1202.4 101.185 1203.33 101.071C1204.2 100.882 1204.83 99.965 1204.6 99.0477C1204.14 96.8444 1202.8 94.8774 1200.94 93.7143C1199.19 92.6079 1197.17 92.2202 1195.13 92.7308C1190.08 93.9318 1186.82 99.303 1187.93 104.665C1188.63 107.927 1190.49 110.66 1193.17 112.381C1194.97 113.535 1196.99 114.131 1199.09 114.131C1199.9 114.131 1200.77 114.027 1201.65 113.837C1209.01 112.098 1213.72 104.249 1212.09 96.3148C1210.06 86.5558 1198.5 81.4777 1188.87 82.3477Z" fill="white"/>
<mask id="mask32_28416_3812" style="mask-type:luminance" maskUnits="userSpaceOnUse" x="1218" y="104" width="42" height="30">
<path d="M1218.07 104.419H1259.22V133.27H1218.07V104.419Z" fill="white"/>
</mask>
<g mask="url(#mask32_28416_3812)">
<path d="M1256.76 115.313C1254.09 111.048 1249.5 108.05 1244.56 107.256C1232.24 105.241 1223.84 110.121 1220.74 120.75C1219.72 124.249 1219.8 127.994 1220.71 131.7H1224.44C1223.49 128.306 1223.32 124.911 1224.23 121.79C1227.43 110.651 1236.77 109.686 1243.98 110.859C1247.93 111.483 1251.59 113.866 1253.67 117.279C1255.53 120.145 1256.01 123.417 1255.14 126.481C1254.54 128.476 1253.47 130.254 1252.1 131.7H1256.67C1257.5 130.414 1258.16 129.005 1258.62 127.511C1259.77 123.417 1259.14 119.076 1256.76 115.313Z" fill="white"/>
</g>
<mask id="mask33_28416_3812" style="mask-type:luminance" maskUnits="userSpaceOnUse" x="1230" y="118" width="10" height="16">
<path d="M1230.17 118.944H1239.86V133.27H1230.17V118.944Z" fill="white"/>
</mask>
<g mask="url(#mask33_28416_3812)">
<path d="M1236.38 126.755C1236.38 126.736 1237.3 124.665 1238.82 123.691C1239.68 123.161 1239.98 122.036 1239.45 121.185C1238.94 120.296 1237.82 120.05 1236.95 120.589C1234.4 122.159 1233.18 124.986 1232.94 125.506C1232.33 127.596 1232.31 129.743 1232.83 131.7H1236.67C1236 130.149 1235.88 128.4 1236.38 126.755Z" fill="white"/>
</g>
<mask id="mask34_28416_3812" style="mask-type:luminance" maskUnits="userSpaceOnUse" x="1000" y="58" width="173" height="76">
<path d="M1000.19 58.4225H1172.07V133.27H1000.19V58.4225Z" fill="white"/>
</mask>
<g mask="url(#mask34_28416_3812)">
<path d="M1123.97 76.853C1115.14 66.1484 1101.42 59.8504 1086.66 59.8504C1071.98 59.8504 1058.21 66.1484 1049.38 76.8624C1023.13 77.7419 1002.11 95.936 1002.11 118.215C1002.11 122.934 1003.07 127.473 1004.8 131.7H1015.7C1013.29 127.605 1011.93 123.038 1011.93 118.215C1011.93 100.863 1029.57 86.7633 1051.71 86.7633C1053.39 86.5363 1054.77 86.0257 1055.72 84.7302C1062.6 75.34 1074.18 69.7229 1086.66 69.7229C1099.24 69.7229 1110.84 75.3683 1117.7 84.8342C1118.67 86.177 1121.9 86.7822 1123.33 86.716C1144.55 86.716 1161.83 100.853 1161.83 118.215C1161.83 123.038 1160.5 127.605 1158.13 131.7H1169C1170.71 127.473 1171.65 122.943 1171.65 118.215C1171.65 95.5766 1150.33 77.1272 1123.97 76.853Z" fill="white"/>
</g>
<mask id="mask35_28416_3812" style="mask-type:luminance" maskUnits="userSpaceOnUse" x="1005" y="63" width="163" height="71">
<path d="M1005.04 63.2648H1167.23V133.27H1005.04V63.2648Z" fill="white"/>
</mask>
<g mask="url(#mask35_28416_3812)">
<path d="M1123.33 81.7803C1122.75 81.7803 1122.22 81.8938 1121.65 81.9032C1114.21 71.6147 1101.34 64.7872 1086.67 64.7872C1072.09 64.7872 1059.27 71.5485 1051.78 81.7992C1051.63 81.7992 1051.49 81.7803 1051.37 81.7803C1026.85 81.7803 1007 98.1209 1007 118.225C1007 122.991 1008.12 127.54 1010.13 131.701H1163.67C1165.64 127.54 1166.74 122.991 1166.74 118.225C1166.74 98.1209 1147.27 81.7803 1123.33 81.7803Z" fill="white"/>
</g>
<path d="M1045.38 78.8484C1044.4 78.924 1043.7 79.8035 1043.78 80.7964C1043.87 81.7799 1044.71 82.4134 1045.71 82.4134C1046.58 82.3472 1047.45 82.3 1048.34 82.3C1060.48 82.3 1074.57 89.3261 1077.04 100.589C1078.06 105.09 1077.27 109.705 1074.82 113.591C1072.36 117.468 1068.55 120.163 1064.08 121.147C1060.59 121.951 1057.03 121.336 1054.05 119.407C1051.02 117.497 1048.92 114.499 1048.17 111.01C1046.94 105.392 1050.43 99.851 1056.01 98.6028C1058.05 98.1394 1060.13 98.4893 1061.92 99.643C1063.7 100.768 1064.95 102.556 1065.41 104.617C1065.63 105.591 1066.64 106.187 1067.51 105.979C1068.47 105.761 1069.07 104.816 1068.87 103.842C1068.21 100.834 1066.42 98.2718 1063.82 96.6264C1061.24 94.981 1058.21 94.4609 1055.23 95.1134C1051.6 95.8982 1048.52 98.0921 1046.55 101.241C1044.51 104.4 1043.87 108.125 1044.68 111.776C1045.68 116.201 1048.32 120.012 1052.12 122.452C1054.84 124.192 1057.95 125.071 1061.1 125.071C1062.34 125.071 1063.59 124.939 1064.84 124.665C1070.24 123.445 1074.82 120.201 1077.78 115.53C1080.75 110.82 1081.74 105.26 1080.52 99.8416C1077.47 85.9028 1059.58 77.6852 1045.38 78.8484Z" fill="white"/>
<path d="M1129.19 82.4134C1130.18 82.3566 1131.05 81.7609 1131.14 80.7963C1131.21 79.8034 1130.5 78.924 1129.53 78.8483C1115.39 77.6379 1097.41 85.9028 1094.4 99.8131C1093.19 105.241 1094.16 110.783 1097.14 115.492C1100.1 120.201 1104.69 123.445 1110.03 124.655C1111.31 124.939 1112.59 125.071 1113.8 125.071C1116.95 125.071 1120.07 124.192 1122.8 122.442C1126.63 120.003 1129.25 116.201 1130.25 111.775C1131.06 108.116 1130.42 104.39 1128.41 101.232C1126.4 98.0921 1123.33 95.8982 1119.71 95.1133C1116.74 94.4419 1113.69 94.962 1111.07 96.6169C1108.52 98.2717 1106.71 100.825 1106.02 103.842C1105.81 104.787 1106.42 105.752 1107.39 105.979C1108.32 106.149 1109.27 105.6 1109.5 104.626C1109.96 102.546 1111.18 100.768 1112.99 99.6429C1114.79 98.4987 1116.93 98.1393 1118.92 98.6027C1121.62 99.1985 1123.94 100.825 1125.41 103.17C1126.88 105.515 1127.4 108.286 1126.8 110.991C1126 114.499 1123.91 117.497 1120.89 119.407C1117.88 121.326 1114.29 121.951 1110.85 121.147C1106.37 120.163 1102.58 117.468 1100.11 113.572C1097.66 109.686 1096.85 105.08 1097.9 100.589C1100.55 88.5127 1116.68 81.203 1129.19 82.4134Z" fill="white"/>
<mask id="mask36_28416_3812" style="mask-type:luminance" maskUnits="userSpaceOnUse" x="1402" y="0" width="49" height="86">
<path d="M1402.05 0.729431H1450.47V85.0521H1402.05V0.729431Z" fill="white"/>
</mask>
<g mask="url(#mask36_28416_3812)">
<path d="M1414.23 42.0066C1414.23 26.5927 1429.75 13.7415 1450.47 11.0653V1.02264C1423.84 3.83119 1403.32 21.1269 1403.32 42.0066C1403.32 62.9053 1423.84 80.2294 1450.47 83.0474V73.0709C1429.89 70.4704 1414.23 57.5435 1414.23 42.0066Z" fill="white"/>
</g>
<mask id="mask37_28416_3812" style="mask-type:luminance" maskUnits="userSpaceOnUse" x="1406" y="5" width="45" height="76">
<path d="M1406.89 5.16479H1450.47V80.2107H1406.89V5.16479Z" fill="white"/>
</mask>
<g mask="url(#mask37_28416_3812)">
<path d="M1408.75 42.0068C1408.75 60.2671 1426.82 75.3595 1450.48 78.064V5.99689C1426.82 8.71087 1408.75 23.8222 1408.75 42.0068Z" fill="white"/>
</g>
<mask id="mask38_28416_3812" style="mask-type:luminance" maskUnits="userSpaceOnUse" x="1435" y="126" width="16" height="8">
<path d="M1435.95 126.206H1450.47V133.27H1435.95V126.206Z" fill="white"/>
</mask>
<g mask="url(#mask38_28416_3812)">
<path d="M1450.47 131.701V127.634C1446.04 129.44 1441.19 130.84 1436.06 131.701H1450.47Z" fill="white"/>
</g>
<mask id="mask39_28416_3812" style="mask-type:luminance" maskUnits="userSpaceOnUse" x="1264" y="26" width="187" height="108">
<path d="M1264.06 26.9523H1450.47V133.271H1264.06V26.9523Z" fill="white"/>
</mask>
<g mask="url(#mask39_28416_3812)">
<path d="M1275.75 125.762C1274.71 118.443 1283.45 108.911 1292.4 107.795C1292.62 107.795 1293.97 107.88 1294.17 107.88C1296.31 107.927 1298.28 106.291 1298.82 104.079C1301.48 93.0146 1309.73 84.9294 1319.84 83.4542C1321.31 83.2367 1322.91 83.1989 1324.72 83.3786C1326.03 83.5299 1327.44 83.0759 1328.43 82.0925C1329.48 81.1563 1330.03 79.7851 1330.06 78.3572C1330.06 58.773 1344.76 41.865 1364.22 39.0281C1380.93 36.5883 1397.43 45.0234 1405.27 59.9645C1406.26 61.8936 1409.54 62.8109 1411.63 62.3097C1425.77 60.2671 1434.08 72.2011 1436.98 77.4589C1437.85 78.9624 1439.34 79.9459 1440.99 80.0404C1444.32 80.2296 1447.51 80.6646 1450.48 81.3076V70.9623C1448.41 70.5746 1446.27 70.2436 1444.08 70.0545C1436.16 57.364 1424.69 50.8864 1412.04 51.9739C1401.73 35.255 1382.34 26.0634 1362.76 28.9192C1340.23 32.1911 1322.84 50.7635 1320.47 73.1184C1306.77 74.2342 1295.21 83.8608 1290.39 97.6199C1276.28 99.7003 1264.19 114.32 1266.05 127.181C1266.29 128.769 1266.66 130.282 1267.12 131.701H1278.16C1276.93 130.121 1276.1 128.136 1275.75 125.762Z" fill="white"/>
</g>
<mask id="mask40_28416_3812" style="mask-type:luminance" maskUnits="userSpaceOnUse" x="1268" y="31" width="183" height="103">
<path d="M1268.91 31.7937H1450.47V133.27H1268.91V31.7937Z" fill="white"/>
</mask>
<g mask="url(#mask40_28416_3812)">
<path d="M1450.47 76.1347C1447.52 75.5484 1444.43 75.1323 1441.22 74.9621C1435.01 63.7185 1424.46 55.2834 1410.9 57.2597C1410.43 57.3165 1409.97 57.4962 1409.53 57.5718C1400.96 41.2406 1382.9 31.1601 1363.5 33.9876C1341.15 37.2311 1325.18 56.4276 1325.11 78.3097C1323.14 78.1111 1321.11 78.1016 1319.1 78.3853C1307.37 80.078 1297.28 89.3074 1294.04 102.802C1293.09 102.802 1292.19 102.537 1291.19 102.688C1279.88 104.324 1269.48 116.154 1270.93 126.471C1271.2 128.391 1271.72 130.131 1272.42 131.71H1450.47V76.1347Z" fill="white"/>
</g>
<path d="M1387.55 33.5711C1386.59 33.4103 1385.69 34.1101 1385.55 35.1219C1385.4 36.0959 1386.04 37.051 1387.04 37.2213C1392.66 38.148 1399.86 43.9069 1405.04 51.5855C1408.98 57.4768 1410.9 63.3209 1410.15 67.2264C1408.52 75.34 1399.02 81.7041 1390.49 80.314C1386.59 79.6804 1382.96 77.3542 1380.81 74.1295C1379.2 71.6614 1378.6 68.9002 1379.1 66.3375C1380.06 61.2216 1385.57 57.874 1391.27 58.7724C1393.65 59.1695 1395.75 60.484 1396.96 62.328C1398.01 63.8504 1398.36 65.6188 1398.01 67.3115C1397.83 68.3611 1398.42 69.2973 1399.4 69.5054C1400.37 69.7418 1401.32 69.0798 1401.49 68.0775C1402.01 65.3824 1401.44 62.5927 1399.89 60.257C1398.09 57.5619 1395.13 55.6896 1391.78 55.1222C1384.19 53.874 1376.92 58.5643 1375.58 65.5715C1374.89 69.1082 1375.71 72.8813 1377.95 76.2005C1380.59 80.2478 1385.12 83.1604 1389.96 83.9831C1391.91 84.2952 1393.83 84.2952 1395.75 84.0115C1404.22 82.7821 1412.01 76.2005 1413.64 67.964C1414.56 63.0183 1412.49 56.3042 1407.93 49.4956C1402.19 40.9187 1394.18 34.6869 1387.55 33.5711Z" fill="white"/>
<mask id="mask41_28416_3812" style="mask-type:luminance" maskUnits="userSpaceOnUse" x="1399" y="97" width="35" height="37">
<path d="M1399.63 97.1562H1433.52V133.27H1399.63V97.1562Z" fill="white"/>
</mask>
<g mask="url(#mask41_28416_3812)">
<path d="M1404.19 122.641C1403.11 117.932 1403.41 113.119 1404.92 109.847C1406.94 105.544 1411.07 102.698 1416.22 102.49C1421.06 102.263 1425.42 104.513 1427.8 108.532C1429.04 110.603 1429.43 113.166 1428.73 115.521C1428.2 117.715 1426.81 119.502 1424.89 120.504C1422.75 121.648 1420.39 121.838 1418.33 121.062C1416.64 120.466 1415.37 119.199 1414.67 117.592C1414.26 116.684 1413.3 116.23 1412.28 116.655C1411.41 117.071 1411.01 118.187 1411.41 119.105C1412.55 121.648 1414.58 123.568 1417.17 124.561C1420.1 125.639 1423.53 125.355 1426.45 123.823C1429.32 122.301 1431.34 119.757 1432.24 116.532C1433.11 113.185 1432.56 109.525 1430.81 106.594C1427.74 101.421 1422.16 98.5086 1416 98.7923C1409.61 99.1705 1404.27 102.736 1401.71 108.22C1399.86 112.22 1399.46 117.923 1400.72 123.455C1401.45 126.632 1403.08 129.384 1405.27 131.701H1410.74C1407.51 129.384 1405.04 126.348 1404.19 122.641Z" fill="white"/>
</g>
<path d="M1336.5 79.2458C1329.27 74.7824 1321.28 73.2599 1315.24 75.0093C1314.31 75.293 1313.77 76.3049 1314.02 77.3072C1314.31 78.2812 1315.3 78.8297 1316.24 78.5649C1321.28 76.9952 1328.37 78.5366 1334.75 82.4231C1340.42 85.9315 1344.36 90.5935 1345.41 94.9339C1347.27 103.019 1341.26 113.024 1332.98 115.464C1329.26 116.627 1325.03 116.06 1321.78 114.055C1319.31 112.523 1317.56 110.301 1317.04 107.71C1315.82 102.631 1319.42 97.1467 1324.94 95.473C1327.27 94.8299 1329.68 95.0758 1331.56 96.22C1333.07 97.1562 1334.09 98.6314 1334.52 100.343C1334.69 101.326 1335.56 101.979 1336.64 101.733C1337.6 101.487 1338.17 100.494 1337.95 99.5108C1337.33 96.7969 1335.69 94.5084 1333.36 93.0521C1330.63 91.3973 1327.32 90.9717 1323.94 91.9457C1316.58 94.1491 1311.93 101.572 1313.55 108.561C1314.36 112.116 1316.63 115.199 1319.97 117.232C1323.37 119.322 1327.54 120.145 1331.57 119.549C1332.4 119.435 1333.21 119.237 1334 119.019C1344.1 116.012 1351.19 104.144 1348.85 94.1018C1347.65 88.7967 1343.04 83.2364 1336.5 79.2458Z" fill="white"/>
</svg>
